# xmcd
#
# Track frame offsets:
#	150
#	20007
#	30848
#	48599
#	73560
#	94467
#	116240
#	137915
#	161381
#	178519
#	195866
#	210848
#	230656
#	242423
#	262345
#	282069
#	295000
#	304138
#	327649
#
# Disc length: 4642 seconds
#
# Revision: 1
# Processed by: cddbd v1.5.1PL0 Copyright (c) Steve Scherf et al.
# Submitted via: CDRider 2.0
#
DISCID=12122013
DTITLE=Various Artist - France 2003
DYEAR=2003
DGENRE=Blues
TTITLE0=Santana Maria
TTITLE1=Aretha Franklin Respect
TTITLE2=Beck Looser
TTITLE3=Beck Where it's at
TTITLE4=MONGUITO "EL UNICO" Mentiroso
TTITLE5=Benjamin Biolay Les cerf-volants
TTITLE6=Cubanacan Cafe society Maria Caracoles
TTITLE7=Salsa instrumental
TTITLE8=Billy ze kick et les gamains en folie Jeanmichmuch
TTITLE9=Bob Marley Redemption song
TTITLE10=Bob Marley Jamming
TTITLE11=Zebda Tomber la chemise
TTITLE12=Carla Bruni J'en Connais
TTITLE13=Eric Clapton I shot the sherif
TTITLE14=Eric Clapton knockin on heaven's door
TTITLE15=Clo clo Si j'avais un marteau
TTITLE16=Les wampas Ma mere me rend folle
TTITLE17=Rock Arrete de danser
TTITLE18=Gotan Project La revanche del Tango
EXTD=
EXTT0=
EXTT1=
EXTT2=
EXTT3=
EXTT4=
EXTT5=
EXTT6=
EXTT7=
EXTT8=
EXTT9=
EXTT10=
EXTT11=
EXTT12=
EXTT13=
EXTT14=
EXTT15=
EXTT16=
EXTT17=
EXTT18=
PLAYORDER=
